<svg width="180" height="56" viewBox="0 0 180 56" fill="none" xmlns="http://www.w3.org/2000/svg">
<path d="M38.839 27.6115H37.6821V24.9821H38.7216C39.9851 24.9821 40.6169 25.4234 40.6169 26.3051C40.6169 27.1763 40.0245 27.6115 38.839 27.6115ZM42.043 23.2802C41.372 22.7185 40.2259 22.438 38.6044 22.438H34.948V33.6784H37.6821V30.1565H38.9063C40.3937 30.1565 41.484 29.8304 42.177 29.1784C42.9592 28.4486 43.3511 27.4771 43.3511 26.2631C43.3511 25.0049 42.9154 24.0107 42.043 23.2802ZM48.031 22.4375H45.1795V33.6787H51.3357V31.1338H48.0311L48.031 22.4375ZM56.8871 29.7691L58.0612 25.9265L59.2181 29.7691H56.8871ZM56.9203 22.4375L52.4422 33.6787H55.5116L56.0988 32.0443H59.9898L60.5262 33.6787H63.6302L59.1848 22.4375H56.9203ZM65.0555 33.6787H67.907V22.4375H65.0555V33.6787ZM74.4149 31.1339H73.1901V24.9821H74.4316C75.3039 24.9821 75.9742 25.2533 76.444 25.795C76.9138 26.3374 77.1484 27.106 77.1484 28.0996C77.1484 30.1229 76.2368 31.1339 74.4149 31.1339ZM78.9771 24.5441C78.5973 24.0044 78.144 23.5726 77.6189 23.2465C76.7572 22.7068 75.5831 22.4369 74.0958 22.4369H70.3388V33.6781H74.7336C76.321 33.6781 77.5964 33.1619 78.558 32.1281C79.5196 31.0943 80 29.7238 80 28.0157C79.9998 26.6566 79.6587 25.4996 78.9771 24.5441ZM27.4727 40.603L29.8582 31.2473L26.6262 28.0001L29.8581 24.7526L27.4725 15.3968L18.1611 13L14.9293 16.2475L11.697 13.0001L2.38552 15.3971L0 24.7526L3.23245 27.9998L0.000149291 31.2475L2.38567 40.6031L11.6971 43L14.9293 39.7525L18.1613 42.9998L27.4727 40.603ZM16.7761 37.8968L19.8542 34.8041L23.7706 38.7392L18.8699 40.0007L16.7761 37.8968ZM11.8512 23.0516L14.9294 19.9589L18.0075 23.0515L14.9293 26.1442L11.8512 23.0516ZM13.0824 28L10.0041 31.0927L6.92606 28L10.0041 24.9073L13.0824 28ZM19.8544 24.9071L22.9324 28L19.8542 31.0927L16.7761 28L19.8544 24.9071ZM18.0073 32.9485L14.9293 36.0412L11.851 32.9483L14.9293 29.8556L18.0073 32.9485ZM10.9883 40.0007L6.08749 38.7392L10.0041 34.804L13.0824 37.8968L10.9883 40.0007ZM5.07918 29.8556L8.15726 32.9483L4.24061 36.8836L2.98507 31.9597L5.07918 29.8556ZM4.24061 19.1161L8.15741 23.0515L5.07918 26.1443L2.98507 24.0401L4.24061 19.1161ZM13.0825 18.1031L10.0043 21.196L6.08779 17.2607L10.9886 15.9992L13.0825 18.1031ZM18.8702 15.9992L23.7709 17.2607L19.8542 21.1958L16.7761 18.1031L18.8702 15.9992ZM24.7793 26.1443L21.7011 23.0515L25.6176 19.1165L26.8731 24.0406L24.7793 26.1443ZM25.6176 36.8836L21.7011 32.9485L24.7793 29.8558L26.8731 31.9597L25.6176 36.8836Z" fill="#111111"/>
<path d="M92.3632 32.192C94.3072 32.192 95.5552 30.944 95.7592 28.856H94.4032C94.2592 30.128 93.5392 30.956 92.4232 30.956C90.8392 30.956 90.0592 29.564 90.0592 27.692C90.0592 25.892 90.8632 24.476 92.3992 24.476C93.4312 24.476 94.1752 25.124 94.3552 26.288H95.7112C95.5192 24.38 94.1512 23.264 92.4112 23.264C90.0832 23.264 88.7032 25.148 88.7032 27.728C88.7032 30.356 90.0112 32.192 92.3632 32.192ZM99.9665 32.168C101.863 32.168 102.991 30.824 102.991 28.904C102.991 26.996 101.851 25.64 99.9785 25.64C98.0945 25.64 96.9545 26.996 96.9545 28.904C96.9545 30.812 98.0825 32.168 99.9665 32.168ZM99.9545 31.076C98.9465 31.076 98.2985 30.236 98.2985 28.88C98.2985 27.548 98.9585 26.72 99.9545 26.72C100.975 26.72 101.647 27.572 101.647 28.904C101.647 30.236 100.963 31.076 99.9545 31.076ZM105.902 32V29.336C105.902 27.668 106.454 26.888 107.714 26.888C107.87 26.888 107.99 26.912 108.194 26.96V25.712C108.026 25.676 107.918 25.664 107.822 25.664C106.898 25.664 106.31 26.048 105.806 26.864L105.362 25.808H104.666V32H105.902ZM112.197 32.168C113.661 32.168 114.669 31.412 114.969 30.032H113.685C113.493 30.728 112.977 31.1 112.245 31.1C111.165 31.1 110.565 30.356 110.517 29.276H115.017C115.065 27.32 114.213 25.64 112.149 25.64C110.409 25.64 109.197 26.984 109.197 28.892C109.197 30.848 110.325 32.168 112.197 32.168ZM110.529 28.28C110.625 27.356 111.189 26.708 112.125 26.708C112.989 26.708 113.577 27.26 113.697 28.28H110.529ZM126.086 32V30.776H121.682V28.208H125.714V27.032H121.682V24.68H126.05V23.468H120.254V32H126.086ZM128.462 32L129.974 29.672L131.51 32H133.058L130.766 28.736L132.878 25.808H131.378L129.986 27.848L128.666 25.808H127.082L129.194 28.784L126.938 32H128.462ZM136.771 32.168C138.307 32.168 139.291 31.256 139.495 29.708H138.211C138.091 30.56 137.575 31.076 136.795 31.076C135.727 31.076 135.199 30.128 135.199 28.94C135.199 27.68 135.703 26.72 136.843 26.72C137.575 26.72 138.079 27.176 138.187 27.932H139.471C139.327 26.42 138.235 25.64 136.819 25.64C134.947 25.64 133.867 27.032 133.867 28.94C133.867 30.848 134.971 32.168 136.771 32.168ZM142.358 32V28.7C142.358 27.356 142.934 26.756 143.882 26.756C144.854 26.756 145.07 27.38 145.07 28.58V32H146.33V28.628C146.33 26.72 145.982 25.664 144.218 25.664C143.486 25.664 142.766 25.976 142.37 26.576L142.358 23.468H141.086V32H142.358ZM150.154 32.132C151.006 32.132 151.75 31.952 152.206 31.22L152.446 32H153.334V28.676C153.334 26.54 153.022 25.64 150.91 25.64C149.494 25.64 148.306 26.192 148.27 27.788H149.566C149.626 26.972 150.118 26.648 150.898 26.648C151.762 26.648 152.062 27.044 152.074 28.196C148.798 28.316 148.018 28.988 148.018 30.308C148.018 31.484 148.942 32.132 150.154 32.132ZM150.466 31.124C149.842 31.124 149.362 30.86 149.362 30.272C149.362 29.18 150.718 29.12 152.062 29.012V29.42C152.062 30.392 151.75 31.124 150.466 31.124ZM156.639 32V28.82C156.639 27.2 157.227 26.744 158.175 26.744C158.943 26.744 159.351 27.236 159.351 28.16V32H160.623V28.568C160.623 26.648 160.227 25.664 158.463 25.664C157.635 25.664 157.011 25.964 156.543 26.648L156.075 25.808H155.379V32H156.639ZM165.238 34.4C167.266 34.4 168.118 33.44 168.118 31.22V25.808H167.206L166.882 26.648C166.522 26 165.862 25.664 165.07 25.664C163.282 25.664 162.358 27.152 162.358 28.808C162.358 30.584 163.33 31.928 164.998 31.928C165.778 31.928 166.438 31.628 166.846 30.968L166.858 31.352C166.858 32.684 166.426 33.404 165.31 33.404C164.626 33.404 164.026 33.104 163.942 32.444H162.634C162.718 33.764 163.87 34.4 165.238 34.4ZM165.25 30.836C164.206 30.836 163.738 29.9 163.738 28.76C163.738 27.608 164.254 26.744 165.286 26.744C166.318 26.744 166.822 27.656 166.822 28.772C166.822 29.924 166.306 30.836 165.25 30.836ZM172.651 32.168C174.115 32.168 175.123 31.412 175.423 30.032H174.139C173.947 30.728 173.431 31.1 172.699 31.1C171.619 31.1 171.019 30.356 170.971 29.276H175.471C175.519 27.32 174.667 25.64 172.603 25.64C170.863 25.64 169.651 26.984 169.651 28.892C169.651 30.848 170.779 32.168 172.651 32.168ZM170.983 28.28C171.079 27.356 171.643 26.708 172.579 26.708C173.443 26.708 174.031 27.26 174.151 28.28H170.983Z" fill="#ADADAD"/>
</svg>
